# MagicaVoxel @ Ephtracy

# group
g Brevna

# material
mtllib Brevna.mtl
usemtl palette

# normals
vn -1 0 0
vn 1 0 0
vn 0 0 1
vn 0 0 -1
vn 0 -1 0
vn 0 1 0

# texcoords
vt 0.373047 0.5
vt 0.994141 0.5

# verts
v -8 0 6
v -8 0 -6
v -8 1 6
v -8 1 5
v -8 1 -5
v -8 1 -6
v -8 2 5
v -8 2 4
v -8 2 -4
v -8 2 -5
v -8 3 4
v -8 3 3
v -8 3 -3
v -8 3 -4
v -8 4 3
v -8 4 2
v -8 4 -2
v -8 4 -3
v -8 5 2
v -8 5 1
v -8 5 -1
v -8 5 -2
v -8 6 1
v -8 6 -1
v -7 0 7
v -7 0 6
v -7 0 -6
v -7 0 -7
v -7 1 7
v -7 1 6
v -7 1 5
v -7 1 -5
v -7 1 -6
v -7 1 -7
v -7 2 6
v -7 2 5
v -7 2 4
v -7 2 -4
v -7 2 -5
v -7 2 -6
v -7 3 5
v -7 3 4
v -7 3 3
v -7 3 -3
v -7 3 -4
v -7 3 -5
v -7 4 4
v -7 4 3
v -7 4 2
v -7 4 -2
v -7 4 -3
v -7 4 -4
v -7 5 3
v -7 5 2
v -7 5 1
v -7 5 -1
v -7 5 -2
v -7 5 -3
v -7 6 2
v -7 6 1
v -7 6 -1
v -7 6 -2
v -7 7 1
v -7 7 -1
v 6 0 7
v 6 0 6
v 6 0 -6
v 6 0 -7
v 6 1 7
v 6 1 6
v 6 1 5
v 6 1 -5
v 6 1 -6
v 6 1 -7
v 6 2 6
v 6 2 5
v 6 2 4
v 6 2 -4
v 6 2 -5
v 6 2 -6
v 6 3 5
v 6 3 4
v 6 3 3
v 6 3 -3
v 6 3 -4
v 6 3 -5
v 6 4 4
v 6 4 3
v 6 4 2
v 6 4 -2
v 6 4 -3
v 6 4 -4
v 6 5 3
v 6 5 2
v 6 5 1
v 6 5 -1
v 6 5 -2
v 6 5 -3
v 6 6 2
v 6 6 1
v 6 6 -1
v 6 6 -2
v 6 7 1
v 6 7 -1
v -6 0 7
v -6 0 6
v -6 0 -6
v -6 0 -7
v -6 1 7
v -6 1 6
v -6 1 5
v -6 1 -5
v -6 1 -6
v -6 1 -7
v -6 2 6
v -6 2 5
v -6 2 4
v -6 2 -4
v -6 2 -5
v -6 2 -6
v -6 3 5
v -6 3 4
v -6 3 3
v -6 3 -3
v -6 3 -4
v -6 3 -5
v -6 4 4
v -6 4 3
v -6 4 2
v -6 4 -2
v -6 4 -3
v -6 4 -4
v -6 5 3
v -6 5 2
v -6 5 1
v -6 5 -1
v -6 5 -2
v -6 5 -3
v -6 6 2
v -6 6 1
v -6 6 -1
v -6 6 -2
v -6 7 1
v -6 7 -1
v 7 0 7
v 7 0 6
v 7 0 -6
v 7 0 -7
v 7 1 7
v 7 1 6
v 7 1 5
v 7 1 -5
v 7 1 -6
v 7 1 -7
v 7 2 6
v 7 2 5
v 7 2 4
v 7 2 -4
v 7 2 -5
v 7 2 -6
v 7 3 5
v 7 3 4
v 7 3 3
v 7 3 -3
v 7 3 -4
v 7 3 -5
v 7 4 4
v 7 4 3
v 7 4 2
v 7 4 -2
v 7 4 -3
v 7 4 -4
v 7 5 3
v 7 5 2
v 7 5 1
v 7 5 -1
v 7 5 -2
v 7 5 -3
v 7 6 2
v 7 6 1
v 7 6 -1
v 7 6 -2
v 7 7 1
v 7 7 -1
v 8 0 6
v 8 0 -6
v 8 1 6
v 8 1 5
v 8 1 -5
v 8 1 -6
v 8 2 5
v 8 2 4
v 8 2 -4
v 8 2 -5
v 8 3 4
v 8 3 3
v 8 3 -3
v 8 3 -4
v 8 4 3
v 8 4 2
v 8 4 -2
v 8 4 -3
v 8 5 2
v 8 5 1
v 8 5 -1
v 8 5 -2
v 8 6 1
v 8 6 -1
v -7 0 7
v -7 1 7
v -6 0 7
v -6 1 7
v 6 0 7
v 6 1 7
v 7 0 7
v 7 1 7
v -8 0 6
v -8 1 6
v -7 0 6
v -7 1 6
v -7 2 6
v -6 0 6
v -6 1 6
v -6 2 6
v 6 0 6
v 6 1 6
v 6 2 6
v 7 0 6
v 7 1 6
v 7 2 6
v 8 0 6
v 8 1 6
v -8 1 5
v -8 2 5
v -7 1 5
v -7 2 5
v -7 3 5
v -6 1 5
v -6 2 5
v -6 3 5
v 6 1 5
v 6 2 5
v 6 3 5
v 7 1 5
v 7 2 5
v 7 3 5
v 8 1 5
v 8 2 5
v -8 2 4
v -8 3 4
v -7 2 4
v -7 3 4
v -7 4 4
v -6 2 4
v -6 3 4
v -6 4 4
v 6 2 4
v 6 3 4
v 6 4 4
v 7 2 4
v 7 3 4
v 7 4 4
v 8 2 4
v 8 3 4
v -8 3 3
v -8 4 3
v -7 3 3
v -7 4 3
v -7 5 3
v -6 3 3
v -6 4 3
v -6 5 3
v 6 3 3
v 6 4 3
v 6 5 3
v 7 3 3
v 7 4 3
v 7 5 3
v 8 3 3
v 8 4 3
v -8 4 2
v -8 5 2
v -7 4 2
v -7 5 2
v -7 6 2
v -6 4 2
v -6 5 2
v -6 6 2
v 6 4 2
v 6 5 2
v 6 6 2
v 7 4 2
v 7 5 2
v 7 6 2
v 8 4 2
v 8 5 2
v -8 5 1
v -8 6 1
v -7 5 1
v -7 6 1
v -7 7 1
v -6 5 1
v -6 6 1
v -6 7 1
v 6 5 1
v 6 6 1
v 6 7 1
v 7 5 1
v 7 6 1
v 7 7 1
v 8 5 1
v 8 6 1
v -8 5 -1
v -8 6 -1
v -7 5 -1
v -7 6 -1
v -7 7 -1
v -6 5 -1
v -6 6 -1
v -6 7 -1
v 6 5 -1
v 6 6 -1
v 6 7 -1
v 7 5 -1
v 7 6 -1
v 7 7 -1
v 8 5 -1
v 8 6 -1
v -8 4 -2
v -8 5 -2
v -7 4 -2
v -7 5 -2
v -7 6 -2
v -6 4 -2
v -6 5 -2
v -6 6 -2
v 6 4 -2
v 6 5 -2
v 6 6 -2
v 7 4 -2
v 7 5 -2
v 7 6 -2
v 8 4 -2
v 8 5 -2
v -8 3 -3
v -8 4 -3
v -7 3 -3
v -7 4 -3
v -7 5 -3
v -6 3 -3
v -6 4 -3
v -6 5 -3
v 6 3 -3
v 6 4 -3
v 6 5 -3
v 7 3 -3
v 7 4 -3
v 7 5 -3
v 8 3 -3
v 8 4 -3
v -8 2 -4
v -8 3 -4
v -7 2 -4
v -7 3 -4
v -7 4 -4
v -6 2 -4
v -6 3 -4
v -6 4 -4
v 6 2 -4
v 6 3 -4
v 6 4 -4
v 7 2 -4
v 7 3 -4
v 7 4 -4
v 8 2 -4
v 8 3 -4
v -8 1 -5
v -8 2 -5
v -7 1 -5
v -7 2 -5
v -7 3 -5
v -6 1 -5
v -6 2 -5
v -6 3 -5
v 6 1 -5
v 6 2 -5
v 6 3 -5
v 7 1 -5
v 7 2 -5
v 7 3 -5
v 8 1 -5
v 8 2 -5
v -8 0 -6
v -8 1 -6
v -7 0 -6
v -7 1 -6
v -7 2 -6
v -6 0 -6
v -6 1 -6
v -6 2 -6
v 6 0 -6
v 6 1 -6
v 6 2 -6
v 7 0 -6
v 7 1 -6
v 7 2 -6
v 8 0 -6
v 8 1 -6
v -7 0 -7
v -7 1 -7
v -6 0 -7
v -6 1 -7
v 6 0 -7
v 6 1 -7
v 7 0 -7
v 7 1 -7
v -7 0 7
v -6 0 7
v 6 0 7
v 7 0 7
v -8 0 6
v -7 0 6
v -6 0 6
v 6 0 6
v 7 0 6
v 8 0 6
v -8 0 -6
v -7 0 -6
v -6 0 -6
v 6 0 -6
v 7 0 -6
v 8 0 -6
v -7 0 -7
v -6 0 -7
v 6 0 -7
v 7 0 -7
v -7 1 7
v -6 1 7
v 6 1 7
v 7 1 7
v -8 1 6
v -7 1 6
v -6 1 6
v 6 1 6
v 7 1 6
v 8 1 6
v -8 1 5
v -7 1 5
v -6 1 5
v 6 1 5
v 7 1 5
v 8 1 5
v -8 1 -5
v -7 1 -5
v -6 1 -5
v 6 1 -5
v 7 1 -5
v 8 1 -5
v -8 1 -6
v -7 1 -6
v -6 1 -6
v 6 1 -6
v 7 1 -6
v 8 1 -6
v -7 1 -7
v -6 1 -7
v 6 1 -7
v 7 1 -7
v -7 2 6
v -6 2 6
v 6 2 6
v 7 2 6
v -8 2 5
v -7 2 5
v -6 2 5
v 6 2 5
v 7 2 5
v 8 2 5
v -8 2 4
v -7 2 4
v -6 2 4
v 6 2 4
v 7 2 4
v 8 2 4
v -8 2 -4
v -7 2 -4
v -6 2 -4
v 6 2 -4
v 7 2 -4
v 8 2 -4
v -8 2 -5
v -7 2 -5
v -6 2 -5
v 6 2 -5
v 7 2 -5
v 8 2 -5
v -7 2 -6
v -6 2 -6
v 6 2 -6
v 7 2 -6
v -7 3 5
v -6 3 5
v 6 3 5
v 7 3 5
v -8 3 4
v -7 3 4
v -6 3 4
v 6 3 4
v 7 3 4
v 8 3 4
v -8 3 3
v -7 3 3
v -6 3 3
v 6 3 3
v 7 3 3
v 8 3 3
v -8 3 -3
v -7 3 -3
v -6 3 -3
v 6 3 -3
v 7 3 -3
v 8 3 -3
v -8 3 -4
v -7 3 -4
v -6 3 -4
v 6 3 -4
v 7 3 -4
v 8 3 -4
v -7 3 -5
v -6 3 -5
v 6 3 -5
v 7 3 -5
v -7 4 4
v -6 4 4
v 6 4 4
v 7 4 4
v -8 4 3
v -7 4 3
v -6 4 3
v 6 4 3
v 7 4 3
v 8 4 3
v -8 4 2
v -7 4 2
v -6 4 2
v 6 4 2
v 7 4 2
v 8 4 2
v -8 4 -2
v -7 4 -2
v -6 4 -2
v 6 4 -2
v 7 4 -2
v 8 4 -2
v -8 4 -3
v -7 4 -3
v -6 4 -3
v 6 4 -3
v 7 4 -3
v 8 4 -3
v -7 4 -4
v -6 4 -4
v 6 4 -4
v 7 4 -4
v -7 5 3
v -6 5 3
v 6 5 3
v 7 5 3
v -8 5 2
v -7 5 2
v -6 5 2
v 6 5 2
v 7 5 2
v 8 5 2
v -8 5 1
v -7 5 1
v -6 5 1
v 6 5 1
v 7 5 1
v 8 5 1
v -8 5 -1
v -7 5 -1
v -6 5 -1
v 6 5 -1
v 7 5 -1
v 8 5 -1
v -8 5 -2
v -7 5 -2
v -6 5 -2
v 6 5 -2
v 7 5 -2
v 8 5 -2
v -7 5 -3
v -6 5 -3
v 6 5 -3
v 7 5 -3
v -7 6 2
v -6 6 2
v 6 6 2
v 7 6 2
v -8 6 1
v -7 6 1
v -6 6 1
v 6 6 1
v 7 6 1
v 8 6 1
v -8 6 -1
v -7 6 -1
v -6 6 -1
v 6 6 -1
v 7 6 -1
v 8 6 -1
v -7 6 -2
v -6 6 -2
v 6 6 -2
v 7 6 -2
v -7 7 1
v -6 7 1
v 6 7 1
v 7 7 1
v -7 7 -1
v -6 7 -1
v 6 7 -1
v 7 7 -1

# faces
f 3/1/1 2/1/1 1/1/1
f 4/1/1 2/1/1 3/1/1
f 5/1/1 2/1/1 4/1/1
f 6/1/1 2/1/1 5/1/1
f 7/1/1 5/1/1 4/1/1
f 8/1/1 5/1/1 7/1/1
f 9/1/1 5/1/1 8/1/1
f 10/1/1 5/1/1 9/1/1
f 11/1/1 9/1/1 8/1/1
f 12/1/1 9/1/1 11/1/1
f 13/1/1 9/1/1 12/1/1
f 14/1/1 9/1/1 13/1/1
f 15/1/1 13/1/1 12/1/1
f 16/1/1 13/1/1 15/1/1
f 17/1/1 13/1/1 16/1/1
f 18/1/1 13/1/1 17/1/1
f 19/1/1 17/1/1 16/1/1
f 20/1/1 17/1/1 19/1/1
f 21/1/1 17/1/1 20/1/1
f 22/1/1 17/1/1 21/1/1
f 23/1/1 21/1/1 20/1/1
f 24/1/1 21/1/1 23/1/1
f 29/2/1 26/2/1 25/2/1
f 30/2/1 26/2/1 29/2/1
f 33/2/1 28/2/1 27/2/1
f 34/2/1 28/2/1 33/2/1
f 35/2/1 31/2/1 30/2/1
f 36/2/1 31/2/1 35/2/1
f 39/2/1 33/2/1 32/2/1
f 40/2/1 33/2/1 39/2/1
f 41/2/1 37/2/1 36/2/1
f 42/2/1 37/2/1 41/2/1
f 45/2/1 39/2/1 38/2/1
f 46/2/1 39/2/1 45/2/1
f 47/2/1 43/2/1 42/2/1
f 48/2/1 43/2/1 47/2/1
f 51/2/1 45/2/1 44/2/1
f 52/2/1 45/2/1 51/2/1
f 53/2/1 49/2/1 48/2/1
f 54/2/1 49/2/1 53/2/1
f 57/2/1 51/2/1 50/2/1
f 58/2/1 51/2/1 57/2/1
f 59/2/1 55/2/1 54/2/1
f 60/2/1 55/2/1 59/2/1
f 61/2/1 57/2/1 56/2/1
f 62/2/1 57/2/1 61/2/1
f 63/2/1 61/2/1 60/2/1
f 64/2/1 61/2/1 63/2/1
f 69/2/1 66/2/1 65/2/1
f 70/2/1 66/2/1 69/2/1
f 73/2/1 68/2/1 67/2/1
f 74/2/1 68/2/1 73/2/1
f 75/2/1 71/2/1 70/2/1
f 76/2/1 71/2/1 75/2/1
f 79/2/1 73/2/1 72/2/1
f 80/2/1 73/2/1 79/2/1
f 81/2/1 77/2/1 76/2/1
f 82/2/1 77/2/1 81/2/1
f 85/2/1 79/2/1 78/2/1
f 86/2/1 79/2/1 85/2/1
f 87/2/1 83/2/1 82/2/1
f 88/2/1 83/2/1 87/2/1
f 91/2/1 85/2/1 84/2/1
f 92/2/1 85/2/1 91/2/1
f 93/2/1 89/2/1 88/2/1
f 94/2/1 89/2/1 93/2/1
f 97/2/1 91/2/1 90/2/1
f 98/2/1 91/2/1 97/2/1
f 99/2/1 95/2/1 94/2/1
f 100/2/1 95/2/1 99/2/1
f 101/2/1 97/2/1 96/2/1
f 102/2/1 97/2/1 101/2/1
f 103/2/1 101/2/1 100/2/1
f 104/2/1 101/2/1 103/2/1
f 105/2/2 106/2/2 109/2/2
f 109/2/2 106/2/2 110/2/2
f 107/2/2 108/2/2 113/2/2
f 113/2/2 108/2/2 114/2/2
f 110/2/2 111/2/2 115/2/2
f 115/2/2 111/2/2 116/2/2
f 112/2/2 113/2/2 119/2/2
f 119/2/2 113/2/2 120/2/2
f 116/2/2 117/2/2 121/2/2
f 121/2/2 117/2/2 122/2/2
f 118/2/2 119/2/2 125/2/2
f 125/2/2 119/2/2 126/2/2
f 122/2/2 123/2/2 127/2/2
f 127/2/2 123/2/2 128/2/2
f 124/2/2 125/2/2 131/2/2
f 131/2/2 125/2/2 132/2/2
f 128/2/2 129/2/2 133/2/2
f 133/2/2 129/2/2 134/2/2
f 130/2/2 131/2/2 137/2/2
f 137/2/2 131/2/2 138/2/2
f 134/2/2 135/2/2 139/2/2
f 139/2/2 135/2/2 140/2/2
f 136/2/2 137/2/2 141/2/2
f 141/2/2 137/2/2 142/2/2
f 140/2/2 141/2/2 143/2/2
f 143/2/2 141/2/2 144/2/2
f 145/2/2 146/2/2 149/2/2
f 149/2/2 146/2/2 150/2/2
f 147/2/2 148/2/2 153/2/2
f 153/2/2 148/2/2 154/2/2
f 150/2/2 151/2/2 155/2/2
f 155/2/2 151/2/2 156/2/2
f 152/2/2 153/2/2 159/2/2
f 159/2/2 153/2/2 160/2/2
f 156/2/2 157/2/2 161/2/2
f 161/2/2 157/2/2 162/2/2
f 158/2/2 159/2/2 165/2/2
f 165/2/2 159/2/2 166/2/2
f 162/2/2 163/2/2 167/2/2
f 167/2/2 163/2/2 168/2/2
f 164/2/2 165/2/2 171/2/2
f 171/2/2 165/2/2 172/2/2
f 168/2/2 169/2/2 173/2/2
f 173/2/2 169/2/2 174/2/2
f 170/2/2 171/2/2 177/2/2
f 177/2/2 171/2/2 178/2/2
f 174/2/2 175/2/2 179/2/2
f 179/2/2 175/2/2 180/2/2
f 176/2/2 177/2/2 181/2/2
f 181/2/2 177/2/2 182/2/2
f 180/2/2 181/2/2 183/2/2
f 183/2/2 181/2/2 184/2/2
f 185/1/2 186/1/2 187/1/2
f 187/1/2 186/1/2 188/1/2
f 188/1/2 186/1/2 189/1/2
f 189/1/2 186/1/2 190/1/2
f 188/1/2 189/1/2 191/1/2
f 191/1/2 189/1/2 192/1/2
f 192/1/2 189/1/2 193/1/2
f 193/1/2 189/1/2 194/1/2
f 192/1/2 193/1/2 195/1/2
f 195/1/2 193/1/2 196/1/2
f 196/1/2 193/1/2 197/1/2
f 197/1/2 193/1/2 198/1/2
f 196/1/2 197/1/2 199/1/2
f 199/1/2 197/1/2 200/1/2
f 200/1/2 197/1/2 201/1/2
f 201/1/2 197/1/2 202/1/2
f 200/1/2 201/1/2 203/1/2
f 203/1/2 201/1/2 204/1/2
f 204/1/2 201/1/2 205/1/2
f 205/1/2 201/1/2 206/1/2
f 204/1/2 205/1/2 207/1/2
f 207/1/2 205/1/2 208/1/2
f 211/2/3 210/2/3 209/2/3
f 212/2/3 210/2/3 211/2/3
f 215/2/3 214/2/3 213/2/3
f 216/2/3 214/2/3 215/2/3
f 219/1/3 218/1/3 217/1/3
f 220/1/3 218/1/3 219/1/3
f 223/2/3 221/2/3 220/2/3
f 224/2/3 221/2/3 223/2/3
f 225/1/3 223/1/3 222/1/3
f 226/1/3 223/1/3 225/1/3
f 229/2/3 227/2/3 226/2/3
f 230/2/3 227/2/3 229/2/3
f 231/1/3 229/1/3 228/1/3
f 232/1/3 229/1/3 231/1/3
f 235/1/3 234/1/3 233/1/3
f 236/1/3 234/1/3 235/1/3
f 239/2/3 237/2/3 236/2/3
f 240/2/3 237/2/3 239/2/3
f 241/1/3 239/1/3 238/1/3
f 242/1/3 239/1/3 241/1/3
f 245/2/3 243/2/3 242/2/3
f 246/2/3 243/2/3 245/2/3
f 247/1/3 245/1/3 244/1/3
f 248/1/3 245/1/3 247/1/3
f 251/1/3 250/1/3 249/1/3
f 252/1/3 250/1/3 251/1/3
f 255/2/3 253/2/3 252/2/3
f 256/2/3 253/2/3 255/2/3
f 257/1/3 255/1/3 254/1/3
f 258/1/3 255/1/3 257/1/3
f 261/2/3 259/2/3 258/2/3
f 262/2/3 259/2/3 261/2/3
f 263/1/3 261/1/3 260/1/3
f 264/1/3 261/1/3 263/1/3
f 267/1/3 266/1/3 265/1/3
f 268/1/3 266/1/3 267/1/3
f 271/2/3 269/2/3 268/2/3
f 272/2/3 269/2/3 271/2/3
f 273/1/3 271/1/3 270/1/3
f 274/1/3 271/1/3 273/1/3
f 277/2/3 275/2/3 274/2/3
f 278/2/3 275/2/3 277/2/3
f 279/1/3 277/1/3 276/1/3
f 280/1/3 277/1/3 279/1/3
f 283/1/3 282/1/3 281/1/3
f 284/1/3 282/1/3 283/1/3
f 287/2/3 285/2/3 284/2/3
f 288/2/3 285/2/3 287/2/3
f 289/1/3 287/1/3 286/1/3
f 290/1/3 287/1/3 289/1/3
f 293/2/3 291/2/3 290/2/3
f 294/2/3 291/2/3 293/2/3
f 295/1/3 293/1/3 292/1/3
f 296/1/3 293/1/3 295/1/3
f 299/1/3 298/1/3 297/1/3
f 300/1/3 298/1/3 299/1/3
f 303/2/3 301/2/3 300/2/3
f 304/2/3 301/2/3 303/2/3
f 305/1/3 303/1/3 302/1/3
f 306/1/3 303/1/3 305/1/3
f 309/2/3 307/2/3 306/2/3
f 310/2/3 307/2/3 309/2/3
f 311/1/3 309/1/3 308/1/3
f 312/1/3 309/1/3 311/1/3
f 313/1/4 314/1/4 315/1/4
f 315/1/4 314/1/4 316/1/4
f 316/2/4 317/2/4 319/2/4
f 319/2/4 317/2/4 320/2/4
f 318/1/4 319/1/4 321/1/4
f 321/1/4 319/1/4 322/1/4
f 322/2/4 323/2/4 325/2/4
f 325/2/4 323/2/4 326/2/4
f 324/1/4 325/1/4 327/1/4
f 327/1/4 325/1/4 328/1/4
f 329/1/4 330/1/4 331/1/4
f 331/1/4 330/1/4 332/1/4
f 332/2/4 333/2/4 335/2/4
f 335/2/4 333/2/4 336/2/4
f 334/1/4 335/1/4 337/1/4
f 337/1/4 335/1/4 338/1/4
f 338/2/4 339/2/4 341/2/4
f 341/2/4 339/2/4 342/2/4
f 340/1/4 341/1/4 343/1/4
f 343/1/4 341/1/4 344/1/4
f 345/1/4 346/1/4 347/1/4
f 347/1/4 346/1/4 348/1/4
f 348/2/4 349/2/4 351/2/4
f 351/2/4 349/2/4 352/2/4
f 350/1/4 351/1/4 353/1/4
f 353/1/4 351/1/4 354/1/4
f 354/2/4 355/2/4 357/2/4
f 357/2/4 355/2/4 358/2/4
f 356/1/4 357/1/4 359/1/4
f 359/1/4 357/1/4 360/1/4
f 361/1/4 362/1/4 363/1/4
f 363/1/4 362/1/4 364/1/4
f 364/2/4 365/2/4 367/2/4
f 367/2/4 365/2/4 368/2/4
f 366/1/4 367/1/4 369/1/4
f 369/1/4 367/1/4 370/1/4
f 370/2/4 371/2/4 373/2/4
f 373/2/4 371/2/4 374/2/4
f 372/1/4 373/1/4 375/1/4
f 375/1/4 373/1/4 376/1/4
f 377/1/4 378/1/4 379/1/4
f 379/1/4 378/1/4 380/1/4
f 380/2/4 381/2/4 383/2/4
f 383/2/4 381/2/4 384/2/4
f 382/1/4 383/1/4 385/1/4
f 385/1/4 383/1/4 386/1/4
f 386/2/4 387/2/4 389/2/4
f 389/2/4 387/2/4 390/2/4
f 388/1/4 389/1/4 391/1/4
f 391/1/4 389/1/4 392/1/4
f 393/1/4 394/1/4 395/1/4
f 395/1/4 394/1/4 396/1/4
f 396/2/4 397/2/4 399/2/4
f 399/2/4 397/2/4 400/2/4
f 398/1/4 399/1/4 401/1/4
f 401/1/4 399/1/4 402/1/4
f 402/2/4 403/2/4 405/2/4
f 405/2/4 403/2/4 406/2/4
f 404/1/4 405/1/4 407/1/4
f 407/1/4 405/1/4 408/1/4
f 409/2/4 410/2/4 411/2/4
f 411/2/4 410/2/4 412/2/4
f 413/2/4 414/2/4 415/2/4
f 415/2/4 414/2/4 416/2/4
f 422/2/5 418/2/5 417/2/5
f 423/2/5 418/2/5 422/2/5
f 424/2/5 420/2/5 419/2/5
f 425/2/5 420/2/5 424/2/5
f 427/1/5 423/1/5 422/1/5
f 427/1/5 426/1/5 425/1/5
f 427/1/5 425/1/5 424/1/5
f 427/1/5 424/1/5 423/1/5
f 427/1/5 422/1/5 421/1/5
f 428/1/5 426/1/5 427/1/5
f 429/1/5 426/1/5 428/1/5
f 430/1/5 426/1/5 429/1/5
f 431/1/5 426/1/5 430/1/5
f 432/1/5 426/1/5 431/1/5
f 433/2/5 429/2/5 428/2/5
f 434/2/5 429/2/5 433/2/5
f 435/2/5 431/2/5 430/2/5
f 436/2/5 431/2/5 435/2/5
f 437/2/6 438/2/6 442/2/6
f 442/2/6 438/2/6 443/2/6
f 439/2/6 440/2/6 444/2/6
f 444/2/6 440/2/6 445/2/6
f 441/1/6 442/1/6 447/1/6
f 447/1/6 442/1/6 448/1/6
f 443/1/6 444/1/6 449/1/6
f 449/1/6 444/1/6 450/1/6
f 445/1/6 446/1/6 451/1/6
f 451/1/6 446/1/6 452/1/6
f 453/1/6 454/1/6 459/1/6
f 459/1/6 454/1/6 460/1/6
f 455/1/6 456/1/6 461/1/6
f 461/1/6 456/1/6 462/1/6
f 457/1/6 458/1/6 463/1/6
f 463/1/6 458/1/6 464/1/6
f 460/2/6 461/2/6 465/2/6
f 465/2/6 461/2/6 466/2/6
f 462/2/6 463/2/6 467/2/6
f 467/2/6 463/2/6 468/2/6
f 469/2/6 470/2/6 474/2/6
f 474/2/6 470/2/6 475/2/6
f 471/2/6 472/2/6 476/2/6
f 476/2/6 472/2/6 477/2/6
f 473/1/6 474/1/6 479/1/6
f 479/1/6 474/1/6 480/1/6
f 475/1/6 476/1/6 481/1/6
f 481/1/6 476/1/6 482/1/6
f 477/1/6 478/1/6 483/1/6
f 483/1/6 478/1/6 484/1/6
f 485/1/6 486/1/6 491/1/6
f 491/1/6 486/1/6 492/1/6
f 487/1/6 488/1/6 493/1/6
f 493/1/6 488/1/6 494/1/6
f 489/1/6 490/1/6 495/1/6
f 495/1/6 490/1/6 496/1/6
f 492/2/6 493/2/6 497/2/6
f 497/2/6 493/2/6 498/2/6
f 494/2/6 495/2/6 499/2/6
f 499/2/6 495/2/6 500/2/6
f 501/2/6 502/2/6 506/2/6
f 506/2/6 502/2/6 507/2/6
f 503/2/6 504/2/6 508/2/6
f 508/2/6 504/2/6 509/2/6
f 505/1/6 506/1/6 511/1/6
f 511/1/6 506/1/6 512/1/6
f 507/1/6 508/1/6 513/1/6
f 513/1/6 508/1/6 514/1/6
f 509/1/6 510/1/6 515/1/6
f 515/1/6 510/1/6 516/1/6
f 517/1/6 518/1/6 523/1/6
f 523/1/6 518/1/6 524/1/6
f 519/1/6 520/1/6 525/1/6
f 525/1/6 520/1/6 526/1/6
f 521/1/6 522/1/6 527/1/6
f 527/1/6 522/1/6 528/1/6
f 524/2/6 525/2/6 529/2/6
f 529/2/6 525/2/6 530/2/6
f 526/2/6 527/2/6 531/2/6
f 531/2/6 527/2/6 532/2/6
f 533/2/6 534/2/6 538/2/6
f 538/2/6 534/2/6 539/2/6
f 535/2/6 536/2/6 540/2/6
f 540/2/6 536/2/6 541/2/6
f 537/1/6 538/1/6 543/1/6
f 543/1/6 538/1/6 544/1/6
f 539/1/6 540/1/6 545/1/6
f 545/1/6 540/1/6 546/1/6
f 541/1/6 542/1/6 547/1/6
f 547/1/6 542/1/6 548/1/6
f 549/1/6 550/1/6 555/1/6
f 555/1/6 550/1/6 556/1/6
f 551/1/6 552/1/6 557/1/6
f 557/1/6 552/1/6 558/1/6
f 553/1/6 554/1/6 559/1/6
f 559/1/6 554/1/6 560/1/6
f 556/2/6 557/2/6 561/2/6
f 561/2/6 557/2/6 562/2/6
f 558/2/6 559/2/6 563/2/6
f 563/2/6 559/2/6 564/2/6
f 565/2/6 566/2/6 570/2/6
f 570/2/6 566/2/6 571/2/6
f 567/2/6 568/2/6 572/2/6
f 572/2/6 568/2/6 573/2/6
f 569/1/6 570/1/6 575/1/6
f 575/1/6 570/1/6 576/1/6
f 571/1/6 572/1/6 577/1/6
f 577/1/6 572/1/6 578/1/6
f 573/1/6 574/1/6 579/1/6
f 579/1/6 574/1/6 580/1/6
f 581/1/6 582/1/6 587/1/6
f 587/1/6 582/1/6 588/1/6
f 583/1/6 584/1/6 589/1/6
f 589/1/6 584/1/6 590/1/6
f 585/1/6 586/1/6 591/1/6
f 591/1/6 586/1/6 592/1/6
f 588/2/6 589/2/6 593/2/6
f 593/2/6 589/2/6 594/2/6
f 590/2/6 591/2/6 595/2/6
f 595/2/6 591/2/6 596/2/6
f 597/2/6 598/2/6 602/2/6
f 602/2/6 598/2/6 603/2/6
f 599/2/6 600/2/6 604/2/6
f 604/2/6 600/2/6 605/2/6
f 601/1/6 602/1/6 607/1/6
f 607/1/6 602/1/6 608/1/6
f 603/1/6 604/1/6 609/1/6
f 609/1/6 604/1/6 610/1/6
f 605/1/6 606/1/6 611/1/6
f 611/1/6 606/1/6 612/1/6
f 608/2/6 609/2/6 613/2/6
f 613/2/6 609/2/6 614/2/6
f 610/2/6 611/2/6 615/2/6
f 615/2/6 611/2/6 616/2/6
f 617/2/6 618/2/6 621/2/6
f 621/2/6 618/2/6 622/2/6
f 619/2/6 620/2/6 623/2/6
f 623/2/6 620/2/6 624/2/6
