# MagicaVoxel @ Ephtracy

# group
g Kirka

# material
mtllib Kirka.mtl
usemtl palette

# normals
vn -1 0 0
vn 1 0 0
vn 0 0 1
vn 0 0 -1
vn 0 -1 0
vn 0 1 0

# texcoords
vt 0.369141 0.5
vt 0.373047 0.5
vt 0.974609 0.5
vt 0.978516 0.5

# verts
v -6.5 0 0.5
v -6.5 0 -0.5
v -6.5 1 0.5
v -6.5 1 -0.5
v -6.5 2 0.5
v -6.5 2 -0.5
v -5.5 2 0.5
v -5.5 2 -0.5
v -5.5 3 0.5
v -5.5 3 -0.5
v -4.5 3 0.5
v -4.5 3 -0.5
v -4.5 4 0.5
v -4.5 4 -0.5
v -3.5 4 0.5
v -3.5 4 -0.5
v -3.5 5 0.5
v -3.5 5 -0.5
v -3.5 11 0.5
v -3.5 11 -0.5
v -3.5 12 0.5
v -3.5 12 -0.5
v -2.5 5 0.5
v -2.5 5 -0.5
v -2.5 6 0.5
v -2.5 6 -0.5
v -2.5 10 0.5
v -2.5 10 -0.5
v -2.5 11 0.5
v -2.5 11 -0.5
v -2.5 12 0.5
v -2.5 12 -0.5
v -2.5 13 0.5
v -2.5 13 -0.5
v -1.5 6 0.5
v -1.5 6 -0.5
v -1.5 7 0.5
v -1.5 7 -0.5
v -0.5 7 0.5
v -0.5 7 -0.5
v -0.5 8 0.5
v -0.5 8 -0.5
v 0.5 8 0.5
v 0.5 8 -0.5
v 0.5 9 0.5
v 0.5 9 -0.5
v 1.5 9 0.5
v 1.5 9 -0.5
v 1.5 10 0.5
v 1.5 10 -0.5
v 3.5 4 0.5
v 3.5 4 -0.5
v 3.5 8 0.5
v 3.5 8 -0.5
v 4.5 3 0.5
v 4.5 3 -0.5
v 4.5 4 0.5
v 4.5 4 -0.5
v -4.5 0 0.5
v -4.5 0 -0.5
v -4.5 1 0.5
v -4.5 1 -0.5
v -3.5 1 0.5
v -3.5 1 -0.5
v -3.5 2 0.5
v -3.5 2 -0.5
v -2.5 2 0.5
v -2.5 2 -0.5
v -2.5 3 0.5
v -2.5 3 -0.5
v -1.5 3 0.5
v -1.5 3 -0.5
v -1.5 4 0.5
v -1.5 4 -0.5
v -0.5 4 0.5
v -0.5 4 -0.5
v -0.5 5 0.5
v -0.5 5 -0.5
v 0.5 5 0.5
v 0.5 5 -0.5
v 0.5 6 0.5
v 0.5 6 -0.5
v 1.5 6 0.5
v 1.5 6 -0.5
v 1.5 7 0.5
v 1.5 7 -0.5
v 2.5 7 0.5
v 2.5 7 -0.5
v 2.5 8 0.5
v 2.5 8 -0.5
v 2.5 12 0.5
v 2.5 12 -0.5
v 2.5 13 0.5
v 2.5 13 -0.5
v 5.5 3 0.5
v 5.5 3 -0.5
v 5.5 4 0.5
v 5.5 4 -0.5
v 5.5 9 0.5
v 5.5 9 -0.5
v 5.5 10 0.5
v 5.5 10 -0.5
v 5.5 11 0.5
v 5.5 11 -0.5
v 5.5 12 0.5
v 5.5 12 -0.5
v 6.5 4 0.5
v 6.5 4 -0.5
v 6.5 9 0.5
v 6.5 9 -0.5
v -6.5 0 0.5
v -6.5 1 0.5
v -6.5 2 0.5
v -5.5 0 0.5
v -5.5 1 0.5
v -5.5 2 0.5
v -5.5 3 0.5
v -4.5 0 0.5
v -4.5 1 0.5
v -4.5 2 0.5
v -4.5 3 0.5
v -4.5 4 0.5
v -3.5 1 0.5
v -3.5 2 0.5
v -3.5 3 0.5
v -3.5 4 0.5
v -3.5 5 0.5
v -3.5 11 0.5
v -3.5 12 0.5
v -2.5 2 0.5
v -2.5 3 0.5
v -2.5 4 0.5
v -2.5 5 0.5
v -2.5 6 0.5
v -2.5 10 0.5
v -2.5 11 0.5
v -2.5 12 0.5
v -2.5 13 0.5
v -1.5 3 0.5
v -1.5 4 0.5
v -1.5 5 0.5
v -1.5 6 0.5
v -1.5 7 0.5
v -0.5 4 0.5
v -0.5 5 0.5
v -0.5 6 0.5
v -0.5 7 0.5
v -0.5 8 0.5
v 0.5 5 0.5
v 0.5 6 0.5
v 0.5 7 0.5
v 0.5 8 0.5
v 0.5 9 0.5
v 1.5 6 0.5
v 1.5 7 0.5
v 1.5 8 0.5
v 1.5 9 0.5
v 1.5 10 0.5
v 1.5 11 0.5
v 2.5 7 0.5
v 2.5 8 0.5
v 2.5 9 0.5
v 2.5 10 0.5
v 2.5 11 0.5
v 2.5 12 0.5
v 2.5 13 0.5
v 3.5 4 0.5
v 3.5 8 0.5
v 3.5 9 0.5
v 3.5 10 0.5
v 3.5 11 0.5
v 3.5 12 0.5
v 4.5 3 0.5
v 4.5 4 0.5
v 4.5 8 0.5
v 4.5 9 0.5
v 4.5 10 0.5
v 4.5 11 0.5
v 4.5 12 0.5
v 5.5 3 0.5
v 5.5 4 0.5
v 5.5 9 0.5
v 5.5 10 0.5
v 5.5 11 0.5
v 5.5 12 0.5
v 6.5 4 0.5
v 6.5 9 0.5
v -6.5 0 -0.5
v -6.5 1 -0.5
v -6.5 2 -0.5
v -5.5 0 -0.5
v -5.5 1 -0.5
v -5.5 2 -0.5
v -5.5 3 -0.5
v -4.5 0 -0.5
v -4.5 1 -0.5
v -4.5 2 -0.5
v -4.5 3 -0.5
v -4.5 4 -0.5
v -3.5 1 -0.5
v -3.5 2 -0.5
v -3.5 3 -0.5
v -3.5 4 -0.5
v -3.5 5 -0.5
v -3.5 11 -0.5
v -3.5 12 -0.5
v -2.5 2 -0.5
v -2.5 3 -0.5
v -2.5 4 -0.5
v -2.5 5 -0.5
v -2.5 6 -0.5
v -2.5 10 -0.5
v -2.5 11 -0.5
v -2.5 12 -0.5
v -2.5 13 -0.5
v -1.5 3 -0.5
v -1.5 4 -0.5
v -1.5 5 -0.5
v -1.5 6 -0.5
v -1.5 7 -0.5
v -0.5 4 -0.5
v -0.5 5 -0.5
v -0.5 6 -0.5
v -0.5 7 -0.5
v -0.5 8 -0.5
v 0.5 5 -0.5
v 0.5 6 -0.5
v 0.5 7 -0.5
v 0.5 8 -0.5
v 0.5 9 -0.5
v 1.5 6 -0.5
v 1.5 7 -0.5
v 1.5 8 -0.5
v 1.5 9 -0.5
v 1.5 10 -0.5
v 1.5 11 -0.5
v 2.5 7 -0.5
v 2.5 8 -0.5
v 2.5 9 -0.5
v 2.5 10 -0.5
v 2.5 11 -0.5
v 2.5 12 -0.5
v 2.5 13 -0.5
v 3.5 4 -0.5
v 3.5 8 -0.5
v 3.5 9 -0.5
v 3.5 10 -0.5
v 3.5 11 -0.5
v 3.5 12 -0.5
v 4.5 3 -0.5
v 4.5 4 -0.5
v 4.5 8 -0.5
v 4.5 9 -0.5
v 4.5 10 -0.5
v 4.5 11 -0.5
v 4.5 12 -0.5
v 5.5 3 -0.5
v 5.5 4 -0.5
v 5.5 9 -0.5
v 5.5 10 -0.5
v 5.5 11 -0.5
v 5.5 12 -0.5
v 6.5 4 -0.5
v 6.5 9 -0.5
v -6.5 0 0.5
v -5.5 0 0.5
v -4.5 0 0.5
v -6.5 0 -0.5
v -5.5 0 -0.5
v -4.5 0 -0.5
v -4.5 1 0.5
v -3.5 1 0.5
v -4.5 1 -0.5
v -3.5 1 -0.5
v -3.5 2 0.5
v -2.5 2 0.5
v -3.5 2 -0.5
v -2.5 2 -0.5
v -2.5 3 0.5
v -1.5 3 0.5
v 4.5 3 0.5
v 5.5 3 0.5
v -2.5 3 -0.5
v -1.5 3 -0.5
v 4.5 3 -0.5
v 5.5 3 -0.5
v -1.5 4 0.5
v -0.5 4 0.5
v 3.5 4 0.5
v 4.5 4 0.5
v 5.5 4 0.5
v 6.5 4 0.5
v -1.5 4 -0.5
v -0.5 4 -0.5
v 3.5 4 -0.5
v 4.5 4 -0.5
v 5.5 4 -0.5
v 6.5 4 -0.5
v -0.5 5 0.5
v 0.5 5 0.5
v -0.5 5 -0.5
v 0.5 5 -0.5
v 0.5 6 0.5
v 1.5 6 0.5
v 0.5 6 -0.5
v 1.5 6 -0.5
v 1.5 7 0.5
v 2.5 7 0.5
v 1.5 7 -0.5
v 2.5 7 -0.5
v 2.5 8 0.5
v 3.5 8 0.5
v 2.5 8 -0.5
v 3.5 8 -0.5
v -2.5 10 0.5
v 1.5 10 0.5
v -2.5 10 -0.5
v 1.5 10 -0.5
v -3.5 11 0.5
v -2.5 11 0.5
v -3.5 11 -0.5
v -2.5 11 -0.5
v -6.5 2 0.5
v -5.5 2 0.5
v -6.5 2 -0.5
v -5.5 2 -0.5
v -5.5 3 0.5
v -4.5 3 0.5
v -5.5 3 -0.5
v -4.5 3 -0.5
v -4.5 4 0.5
v -3.5 4 0.5
v -4.5 4 -0.5
v -3.5 4 -0.5
v -3.5 5 0.5
v -2.5 5 0.5
v -3.5 5 -0.5
v -2.5 5 -0.5
v -2.5 6 0.5
v -1.5 6 0.5
v -2.5 6 -0.5
v -1.5 6 -0.5
v -1.5 7 0.5
v -0.5 7 0.5
v -1.5 7 -0.5
v -0.5 7 -0.5
v -0.5 8 0.5
v 0.5 8 0.5
v -0.5 8 -0.5
v 0.5 8 -0.5
v 0.5 9 0.5
v 1.5 9 0.5
v 5.5 9 0.5
v 6.5 9 0.5
v 0.5 9 -0.5
v 1.5 9 -0.5
v 5.5 9 -0.5
v 6.5 9 -0.5
v -3.5 12 0.5
v -2.5 12 0.5
v 2.5 12 0.5
v 3.5 12 0.5
v 4.5 12 0.5
v 5.5 12 0.5
v -3.5 12 -0.5
v -2.5 12 -0.5
v 2.5 12 -0.5
v 3.5 12 -0.5
v 4.5 12 -0.5
v 5.5 12 -0.5
v -2.5 13 0.5
v 2.5 13 0.5
v -2.5 13 -0.5
v 2.5 13 -0.5

# faces
f 3/2/1 2/2/1 1/2/1
f 4/2/1 2/2/1 3/2/1
f 5/1/1 4/1/1 3/1/1
f 6/1/1 4/1/1 5/1/1
f 9/1/1 8/1/1 7/1/1
f 10/1/1 8/1/1 9/1/1
f 13/1/1 12/1/1 11/1/1
f 14/1/1 12/1/1 13/1/1
f 17/1/1 16/1/1 15/1/1
f 18/1/1 16/1/1 17/1/1
f 21/3/1 20/3/1 19/3/1
f 22/3/1 20/3/1 21/3/1
f 25/1/1 24/1/1 23/1/1
f 26/1/1 24/1/1 25/1/1
f 29/3/1 28/3/1 27/3/1
f 30/3/1 28/3/1 29/3/1
f 33/3/1 32/3/1 31/3/1
f 34/3/1 32/3/1 33/3/1
f 37/1/1 36/1/1 35/1/1
f 38/1/1 36/1/1 37/1/1
f 41/1/1 40/1/1 39/1/1
f 42/1/1 40/1/1 41/1/1
f 45/1/1 44/1/1 43/1/1
f 46/1/1 44/1/1 45/1/1
f 49/1/1 48/1/1 47/1/1
f 50/1/1 48/1/1 49/1/1
f 53/3/1 52/3/1 51/3/1
f 54/3/1 52/3/1 53/3/1
f 57/3/1 56/3/1 55/3/1
f 58/3/1 56/3/1 57/3/1
f 59/1/2 60/1/2 61/1/2
f 61/1/2 60/1/2 62/1/2
f 63/1/2 64/1/2 65/1/2
f 65/1/2 64/1/2 66/1/2
f 67/1/2 68/1/2 69/1/2
f 69/1/2 68/1/2 70/1/2
f 71/1/2 72/1/2 73/1/2
f 73/1/2 72/1/2 74/1/2
f 75/1/2 76/1/2 77/1/2
f 77/1/2 76/1/2 78/1/2
f 79/1/2 80/1/2 81/1/2
f 81/1/2 80/1/2 82/1/2
f 83/1/2 84/1/2 85/1/2
f 85/1/2 84/1/2 86/1/2
f 87/1/2 88/1/2 89/1/2
f 89/1/2 88/1/2 90/1/2
f 91/3/2 92/3/2 93/3/2
f 93/3/2 92/3/2 94/3/2
f 95/3/2 96/3/2 97/3/2
f 97/3/2 96/3/2 98/3/2
f 99/3/2 100/3/2 101/3/2
f 101/3/2 100/3/2 102/3/2
f 101/1/2 102/1/2 103/1/2
f 103/1/2 102/1/2 104/1/2
f 103/2/2 104/2/2 105/2/2
f 105/2/2 104/2/2 106/2/2
f 107/3/2 108/3/2 109/3/2
f 109/3/2 108/3/2 110/3/2
f 114/2/3 112/2/3 111/2/3
f 115/1/3 113/1/3 112/1/3
f 115/2/3 112/2/3 114/2/3
f 116/1/3 113/1/3 115/1/3
f 118/1/3 115/1/3 114/1/3
f 119/2/3 116/2/3 115/2/3
f 119/1/3 115/1/3 118/1/3
f 120/1/3 117/1/3 116/1/3
f 120/2/3 116/2/3 119/2/3
f 121/1/3 117/1/3 120/1/3
f 123/1/3 120/1/3 119/1/3
f 124/2/3 121/2/3 120/2/3
f 124/1/3 120/1/3 123/1/3
f 125/1/3 122/1/3 121/1/3
f 125/2/3 121/2/3 124/2/3
f 126/1/3 122/1/3 125/1/3
f 130/1/3 125/1/3 124/1/3
f 131/2/3 126/2/3 125/2/3
f 131/1/3 125/1/3 130/1/3
f 132/1/3 127/1/3 126/1/3
f 132/2/3 126/2/3 131/2/3
f 133/1/3 127/1/3 132/1/3
f 136/3/3 129/3/3 128/3/3
f 137/3/3 129/3/3 136/3/3
f 139/1/3 132/1/3 131/1/3
f 140/2/3 133/2/3 132/2/3
f 140/1/3 132/1/3 139/1/3
f 141/1/3 134/1/3 133/1/3
f 141/2/3 133/2/3 140/2/3
f 142/1/3 134/1/3 141/1/3
f 144/1/3 141/1/3 140/1/3
f 145/2/3 142/2/3 141/2/3
f 145/1/3 141/1/3 144/1/3
f 146/1/3 143/1/3 142/1/3
f 146/2/3 142/2/3 145/2/3
f 147/1/3 143/1/3 146/1/3
f 149/1/3 146/1/3 145/1/3
f 150/2/3 147/2/3 146/2/3
f 150/1/3 146/1/3 149/1/3
f 151/1/3 148/1/3 147/1/3
f 151/2/3 147/2/3 150/2/3
f 152/1/3 148/1/3 151/1/3
f 154/1/3 151/1/3 150/1/3
f 155/2/3 152/2/3 151/2/3
f 155/1/3 151/1/3 154/1/3
f 156/1/3 153/1/3 152/1/3
f 156/2/3 152/2/3 155/2/3
f 157/1/3 153/1/3 156/1/3
f 158/3/3 136/3/3 135/3/3
f 159/4/3 137/4/3 136/4/3
f 159/3/3 136/3/3 158/3/3
f 160/1/3 156/1/3 155/1/3
f 161/2/3 157/2/3 156/2/3
f 161/1/3 156/1/3 160/1/3
f 162/1/3 158/1/3 157/1/3
f 162/2/3 157/2/3 161/2/3
f 163/4/3 159/4/3 158/4/3
f 163/1/3 158/1/3 162/1/3
f 164/4/3 137/4/3 159/4/3
f 164/4/3 159/4/3 163/4/3
f 165/3/3 138/3/3 137/3/3
f 165/4/3 137/4/3 164/4/3
f 166/3/3 138/3/3 165/3/3
f 168/1/3 162/1/3 161/1/3
f 169/4/3 163/4/3 162/4/3
f 169/4/3 164/4/3 163/4/3
f 169/1/3 162/1/3 168/1/3
f 170/4/3 164/4/3 169/4/3
f 171/3/3 165/3/3 164/3/3
f 171/4/3 164/4/3 170/4/3
f 172/3/3 165/3/3 171/3/3
f 174/3/3 168/3/3 167/3/3
f 175/4/3 170/4/3 169/4/3
f 175/4/3 169/4/3 168/4/3
f 175/3/3 168/3/3 174/3/3
f 176/4/3 170/4/3 175/4/3
f 177/2/3 171/2/3 170/2/3
f 177/4/3 170/4/3 176/4/3
f 178/1/3 172/1/3 171/1/3
f 178/2/3 171/2/3 177/2/3
f 179/1/3 172/1/3 178/1/3
f 180/3/3 174/3/3 173/3/3
f 181/4/3 176/4/3 175/4/3
f 181/3/3 174/3/3 180/3/3
f 181/4/3 175/4/3 174/4/3
f 182/3/3 177/3/3 176/3/3
f 182/4/3 176/4/3 181/4/3
f 183/1/3 178/1/3 177/1/3
f 183/3/3 177/3/3 182/3/3
f 184/2/3 179/2/3 178/2/3
f 184/1/3 178/1/3 183/1/3
f 185/2/3 179/2/3 184/2/3
f 186/3/3 182/3/3 181/3/3
f 187/3/3 182/3/3 186/3/3
f 188/2/4 189/2/4 191/2/4
f 189/1/4 190/1/4 192/1/4
f 191/2/4 189/2/4 192/2/4
f 192/1/4 190/1/4 193/1/4
f 191/1/4 192/1/4 195/1/4
f 192/2/4 193/2/4 196/2/4
f 195/1/4 192/1/4 196/1/4
f 193/1/4 194/1/4 197/1/4
f 196/2/4 193/2/4 197/2/4
f 197/1/4 194/1/4 198/1/4
f 196/1/4 197/1/4 200/1/4
f 197/2/4 198/2/4 201/2/4
f 200/1/4 197/1/4 201/1/4
f 198/1/4 199/1/4 202/1/4
f 201/2/4 198/2/4 202/2/4
f 202/1/4 199/1/4 203/1/4
f 201/1/4 202/1/4 207/1/4
f 202/2/4 203/2/4 208/2/4
f 207/1/4 202/1/4 208/1/4
f 203/1/4 204/1/4 209/1/4
f 208/2/4 203/2/4 209/2/4
f 209/1/4 204/1/4 210/1/4
f 205/3/4 206/3/4 213/3/4
f 213/3/4 206/3/4 214/3/4
f 208/1/4 209/1/4 216/1/4
f 209/2/4 210/2/4 217/2/4
f 216/1/4 209/1/4 217/1/4
f 210/1/4 211/1/4 218/1/4
f 217/2/4 210/2/4 218/2/4
f 218/1/4 211/1/4 219/1/4
f 217/1/4 218/1/4 221/1/4
f 218/2/4 219/2/4 222/2/4
f 221/1/4 218/1/4 222/1/4
f 219/1/4 220/1/4 223/1/4
f 222/2/4 219/2/4 223/2/4
f 223/1/4 220/1/4 224/1/4
f 222/1/4 223/1/4 226/1/4
f 223/2/4 224/2/4 227/2/4
f 226/1/4 223/1/4 227/1/4
f 224/1/4 225/1/4 228/1/4
f 227/2/4 224/2/4 228/2/4
f 228/1/4 225/1/4 229/1/4
f 227/1/4 228/1/4 231/1/4
f 228/2/4 229/2/4 232/2/4
f 231/1/4 228/1/4 232/1/4
f 229/1/4 230/1/4 233/1/4
f 232/2/4 229/2/4 233/2/4
f 233/1/4 230/1/4 234/1/4
f 212/3/4 213/3/4 235/3/4
f 213/4/4 214/4/4 236/4/4
f 235/3/4 213/3/4 236/3/4
f 232/1/4 233/1/4 237/1/4
f 233/2/4 234/2/4 238/2/4
f 237/1/4 233/1/4 238/1/4
f 234/1/4 235/1/4 239/1/4
f 238/2/4 234/2/4 239/2/4
f 235/4/4 236/4/4 240/4/4
f 239/1/4 235/1/4 240/1/4
f 236/4/4 214/4/4 241/4/4
f 240/4/4 236/4/4 241/4/4
f 214/3/4 215/3/4 242/3/4
f 241/4/4 214/4/4 242/4/4
f 242/3/4 215/3/4 243/3/4
f 238/1/4 239/1/4 245/1/4
f 239/4/4 240/4/4 246/4/4
f 240/4/4 241/4/4 246/4/4
f 245/1/4 239/1/4 246/1/4
f 246/4/4 241/4/4 247/4/4
f 241/3/4 242/3/4 248/3/4
f 247/4/4 241/4/4 248/4/4
f 248/3/4 242/3/4 249/3/4
f 244/3/4 245/3/4 251/3/4
f 246/4/4 247/4/4 252/4/4
f 245/4/4 246/4/4 252/4/4
f 251/3/4 245/3/4 252/3/4
f 252/4/4 247/4/4 253/4/4
f 247/2/4 248/2/4 254/2/4
f 253/4/4 247/4/4 254/4/4
f 248/1/4 249/1/4 255/1/4
f 254/2/4 248/2/4 255/2/4
f 255/1/4 249/1/4 256/1/4
f 250/3/4 251/3/4 257/3/4
f 252/4/4 253/4/4 258/4/4
f 257/3/4 251/3/4 258/3/4
f 251/4/4 252/4/4 258/4/4
f 253/3/4 254/3/4 259/3/4
f 258/4/4 253/4/4 259/4/4
f 254/1/4 255/1/4 260/1/4
f 259/3/4 254/3/4 260/3/4
f 255/2/4 256/2/4 261/2/4
f 260/1/4 255/1/4 261/1/4
f 261/2/4 256/2/4 262/2/4
f 258/3/4 259/3/4 263/3/4
f 263/3/4 259/3/4 264/3/4
f 268/2/5 266/2/5 265/2/5
f 269/1/5 267/1/5 266/1/5
f 269/2/5 266/2/5 268/2/5
f 270/1/5 267/1/5 269/1/5
f 273/1/5 272/1/5 271/1/5
f 274/1/5 272/1/5 273/1/5
f 277/1/5 276/1/5 275/1/5
f 278/1/5 276/1/5 277/1/5
f 283/1/5 280/1/5 279/1/5
f 284/1/5 280/1/5 283/1/5
f 285/3/5 282/3/5 281/3/5
f 286/3/5 282/3/5 285/3/5
f 293/1/5 288/1/5 287/1/5
f 294/1/5 288/1/5 293/1/5
f 295/3/5 290/3/5 289/3/5
f 296/3/5 290/3/5 295/3/5
f 297/3/5 292/3/5 291/3/5
f 298/3/5 292/3/5 297/3/5
f 301/1/5 300/1/5 299/1/5
f 302/1/5 300/1/5 301/1/5
f 305/1/5 304/1/5 303/1/5
f 306/1/5 304/1/5 305/1/5
f 309/1/5 308/1/5 307/1/5
f 310/1/5 308/1/5 309/1/5
f 313/1/5 312/1/5 311/1/5
f 314/1/5 312/1/5 313/1/5
f 317/3/5 316/3/5 315/3/5
f 318/3/5 316/3/5 317/3/5
f 321/3/5 320/3/5 319/3/5
f 322/3/5 320/3/5 321/3/5
f 323/1/6 324/1/6 325/1/6
f 325/1/6 324/1/6 326/1/6
f 327/1/6 328/1/6 329/1/6
f 329/1/6 328/1/6 330/1/6
f 331/1/6 332/1/6 333/1/6
f 333/1/6 332/1/6 334/1/6
f 335/1/6 336/1/6 337/1/6
f 337/1/6 336/1/6 338/1/6
f 339/1/6 340/1/6 341/1/6
f 341/1/6 340/1/6 342/1/6
f 343/1/6 344/1/6 345/1/6
f 345/1/6 344/1/6 346/1/6
f 347/1/6 348/1/6 349/1/6
f 349/1/6 348/1/6 350/1/6
f 351/1/6 352/1/6 355/1/6
f 355/1/6 352/1/6 356/1/6
f 353/3/6 354/3/6 357/3/6
f 357/3/6 354/3/6 358/3/6
f 359/3/6 360/3/6 365/3/6
f 365/3/6 360/3/6 366/3/6
f 361/3/6 362/3/6 367/3/6
f 362/1/6 363/1/6 368/1/6
f 367/3/6 362/3/6 368/3/6
f 363/2/6 364/2/6 369/2/6
f 368/1/6 363/1/6 369/1/6
f 369/2/6 364/2/6 370/2/6
f 371/3/6 372/3/6 373/3/6
f 373/3/6 372/3/6 374/3/6
